# xmcd
#
# Track frame offsets:
#	150
#	14753
#	31076
#	45905
#	64193
#	83870
#	99313
#	114781
#	131237
#	147161
#	162150
#	179778
#	196879
#	215416
#	230306
#	245859
#	257222
#	274024
#	289945
#
# Disc length: 4092 seconds
#
# Revision: 1
# Processed by: cddbd v1.5.2PL0 Copyright (c) Steve Scherf et al.
# Submitted via: audiograbber 1.83.01
#
DISCID=150ffa13
DTITLE=Various Artist - Radio Trakks 240
DYEAR=2011
DGENRE=Top 40
TTITLE0=Guetta, David Ft Flo Rida and Minaj, Nicki - Where Them Girls At (Clean R
TTITLE0=adio Version)
TTITLE1=Gartner, W Ft Will.I.Am - Forever
TTITLE2=Webb, Matt - Bad Girl
TTITLE3=Iglesias, Enrique Ft Usher - Dirty Dancer
TTITLE4=September - Me And My Microphone (Extended)
TTITLE5=Derulo, Jason - Don't Wanna Go Home
TTITLE6=Pink - Heartbreak Down (Funk3D Radio Edit)
TTITLE7=Inna - Sun Is Up (Play and Win Radio Edit)
TTITLE8=Candy Coated Killahz - Neon Black
TTITLE9=Minaj, Nicki - Super Bass (Clean Edit)
TTITLE10=Beyonce - Run The World (Girls) (Clean Radio Edit)
TTITLE11=Mars, Bruno - Marry You
TTITLE12=Train - Save Me San Francisco
TTITLE13=Simple Plan Ft Cuomo, R - Can't Keep My Hands Off You
TTITLE14=Lavigne, Avril - Smile [Squeaky Clean]
TTITLE15=Essentials - Invisible
TTITLE16=Bryan, Luke - Country Girl (Shake It For Me)
TTITLE17=Shelton, Blake - Honey Bee
TTITLE18=Clark, Terri - Northern Girl
EXTD=
EXTT0=
EXTT1=
EXTT2=
EXTT3=
EXTT4=
EXTT5=
EXTT6=
EXTT7=
EXTT8=
EXTT9=
EXTT10=
EXTT11=
EXTT12=
EXTT13=
EXTT14=
EXTT15=
EXTT16=
EXTT17=
EXTT18=
PLAYORDER=
